<svg xmlns="http://www.w3.org/2000/svg" viewBox="0 0 470 470" width="470" height="470" role="img">
  
  <defs>
    <linearGradient id="gsoy-" x1="0" y1="0" x2="0.7" y2="1">
      <stop offset="0%" stop-color="#F6EEDC"/>
      <stop offset="100%" stop-color="#DCCBA8"/>
    </linearGradient>
    <filter id="ssoy-" x="-20%" y="-20%" width="140%" height="140%">
      <feDropShadow dx="0" dy="10" stdDeviation="14" flood-color="#5E4A2A" flood-opacity="0.22"/>
    </filter>
  </defs>
  <rect width="470" height="470" fill="url(#gsoy-)"/>
  <circle cx="392" cy="72" r="120" fill="#FFFFFF" opacity="0.10"/>
  <circle cx="62" cy="410" r="150" fill="#5E4A2A" opacity="0.10"/>
  <g filter="url(#ssoy-)">
        <path d="M214 150h56v42a46 46 0 0 1 30 44v128a24 24 0 0 1-24 24h-68a24 24 0 0 1-24-24V236a46 46 0 0 1 30-44Z" fill="#5E4A2A" opacity="0.86"/>
        <rect x="222" y="120" width="40" height="34" rx="10" fill="#5E4A2A" opacity="0.7"/>
        <g fill="#FFFFFF" opacity="0.32">
          <rect x="204" y="272" width="76" height="66" rx="10"/>
        </g>
        <g fill="#5E4A2A" opacity="0.55">
          <rect x="212" y="288" width="60" height="10" rx="5"/>
          <rect x="212" y="308" width="40" height="10" rx="5"/>
        </g></g>
</svg>